<svg width="20" height="21" viewBox="0 0 20 21" fill="none" xmlns="http://www.w3.org/2000/svg">
<g clip-path="url(#clip0_7618_677)">
<path d="M8.3335 12.1667L17.5002 3" stroke="white" stroke-width="2" stroke-linecap="round" stroke-linejoin="round"/>
<path d="M17.4998 3L12.0831 18C12.0466 18.0798 11.9879 18.1474 11.914 18.1948C11.8402 18.2422 11.7542 18.2674 11.6665 18.2674C11.5787 18.2674 11.4928 18.2422 11.4189 18.1948C11.3451 18.1474 11.2864 18.0798 11.2498 18L8.33315 12.1667L2.49981 9.25C2.42003 9.21344 2.35242 9.15474 2.30502 9.08088C2.25762 9.00701 2.23242 8.9211 2.23242 8.83333C2.23242 8.74557 2.25762 8.65965 2.30502 8.58579C2.35242 8.51193 2.42003 8.45323 2.49981 8.41667L17.4998 3Z" stroke="white" stroke-width="2" stroke-linecap="round" stroke-linejoin="round"/>
</g>
<defs>
<clipPath id="clip0_7618_677">
<rect width="20" height="20" fill="white" transform="translate(0 0.5)"/>
</clipPath>
</defs>
</svg>
